
        <svg xmlns="http://www.w3.org/2000/svg" xmlns:xlink="http://www.w3.org/1999/xlink" version="1.1" width="3157.48031496063" 
        height="819.742518311708" viewBox="0 0 3157.48031496063 819.742518311708">
			
			<g transform="scale(7.874015748031496) translate(10, 10)">
				<defs id="SvgjsDefs2555"></defs><g id="SvgjsG2556" featureKey="UqkkrJ-0" transform="matrix(1.02965399556978,0,0,1.02965399556978,-7.732703706307286,-9.42957030161784)" fill="#f4621e"><path xmlns="http://www.w3.org/2000/svg" d="M64.427,49.68c0-7.638-6.192-13.83-13.83-13.83s-13.83,6.192-13.83,13.83c0,7.638,6.192,13.83,13.83,13.83  S64.427,57.318,64.427,49.68z M48.361,41.848c-2.372,1.271-4.085,3.133-5.158,4.575c-0.407,0.547-1.273,0.165-1.14-0.503  c0.817-4.081,3.712-5.111,5.949-5.269C48.695,40.603,48.964,41.525,48.361,41.848z M39.273,36.327l-5.169-4.885  c0.602-1.094,0.975-2.332,0.975-3.669c0-4.235-3.43-7.665-7.666-7.665s-7.672,3.428-7.672,7.665s3.435,7.668,7.672,7.668  c1.493,0,2.875-0.445,4.054-1.183l5.162,4.88C37.408,38.106,38.289,37.161,39.273,36.327z M26.943,23.318  c-1.745,0.935-3.004,2.304-3.793,3.365c-0.299,0.402-0.937,0.121-0.838-0.37c0.601-3.001,2.73-3.759,4.375-3.875  C27.188,22.402,27.386,23.08,26.943,23.318z M61.138,35.716l6.869-11.559c0.676,0.193,1.378,0.333,2.114,0.333  c4.244,0,7.674-3.432,7.674-7.668c0-4.235-3.43-7.664-7.674-7.664c-4.236,0-7.665,3.428-7.665,7.664c0,2.103,0.848,4.003,2.219,5.39  l-6.847,11.527C59.004,34.271,60.114,34.937,61.138,35.716z M65.302,15.11c0.601-3.001,2.73-3.759,4.375-3.875  c0.502-0.036,0.7,0.642,0.256,0.88c-1.745,0.935-3.004,2.304-3.793,3.365C65.841,15.882,65.203,15.601,65.302,15.11z M84.828,45.393  c-3.298,0-6.091,2.096-7.175,5.017l-9.543-0.942c0,0.072,0.011,0.141,0.011,0.212c0,1.244-0.137,2.459-0.385,3.632l9.539,0.942  c0.577,3.66,3.728,6.466,7.552,6.466c4.235,0,7.663-3.428,7.663-7.663C92.49,48.825,89.062,45.393,84.828,45.393z M84.457,48.342  c-1.745,0.935-3.004,2.304-3.793,3.365c-0.299,0.402-0.937,0.121-0.838-0.37c0.601-3.001,2.73-3.759,4.375-3.875  C84.703,47.427,84.901,48.104,84.457,48.342z M58.493,75.538l-2.134-9.323c-1.204,0.419-2.457,0.72-3.764,0.87l2.137,9.324  c-2.45,1.282-4.141,3.815-4.141,6.773c0,4.235,3.428,7.661,7.672,7.661c4.235,0,7.663-3.428,7.663-7.661  C65.931,79.025,62.619,75.66,58.493,75.538z M57.44,78.943c-1.745,0.935-3.004,2.304-3.793,3.365  c-0.299,0.402-0.937,0.121-0.838-0.37c0.601-3.001,2.73-3.759,4.375-3.875C57.686,78.027,57.884,78.705,57.44,78.943z   M33.469,53.381l-11.879,3.98c-1.371-2.094-3.73-3.482-6.415-3.482c-4.236,0-7.665,3.43-7.665,7.665c0,4.24,3.428,7.67,7.665,7.67  c4.233,0,7.67-3.43,7.67-7.67c0-0.177-0.038-0.34-0.052-0.514l11.917-3.99C34.172,55.88,33.745,54.659,33.469,53.381z   M14.773,57.314c-1.745,0.935-3.004,2.304-3.793,3.365c-0.299,0.402-0.937,0.121-0.838-0.37c0.601-3.001,2.73-3.759,4.375-3.875  C15.019,56.398,15.217,57.076,14.773,57.314z"></path></g><g id="SvgjsG2557" featureKey="0kuQ8p-0" transform="matrix(1.7686295865682355,0,0,1.7686295865682355,107.71701953602054,8.671205474614965)" fill="#000000"><path d="M0.16 8 l0 -2 l6.8 0 l0 2 l-2.3 0 l0 12 l-2.2 0 l0 -12 l-2.3 0 z M9.94 9.22 l0 7.56 c0 1 0.44 1.38 1.14 1.38 s1.14 -0.38 1.14 -1.38 l0 -7.56 c0 -1 -0.44 -1.38 -1.14 -1.38 s-1.14 0.38 -1.14 1.38 z M7.74 16.64 l0 -7.28 c0 -2.24 1.18 -3.52 3.34 -3.52 s3.34 1.28 3.34 3.52 l0 7.28 c0 2.24 -1.18 3.52 -3.34 3.52 s-3.34 -1.28 -3.34 -3.52 z M22.68 20 l-2.24 0 c-0.12 -0.36 -0.2 -0.58 -0.2 -1.72 l0 -2.2 c0 -1.3 -0.44 -1.78 -1.44 -1.78 l-0.76 0 l0 5.7 l-2.2 0 l0 -14 l3.32 0 c2.28 0 3.26 1.06 3.26 3.22 l0 1.1 c0 1.44 -0.46 2.36 -1.44 2.82 l0 0.04 c1.1 0.46 1.46 1.5 1.46 2.96 l0 2.16 c0 0.68 0.02 1.18 0.24 1.7 z M19.099999999999998 8 l-1.06 0 l0 4.3 l0.86 0 c0.82 0 1.32 -0.36 1.32 -1.48 l0 -1.38 c0 -1 -0.34 -1.44 -1.12 -1.44 z M28.18 14.780000000000001 l2.08 0 l0 1.86 c0 2.24 -1.12 3.52 -3.28 3.52 s-3.28 -1.28 -3.28 -3.52 l0 -7.28 c0 -2.24 1.12 -3.52 3.28 -3.52 s3.28 1.28 3.28 3.52 l0 1.36 l-2.08 0 l0 -1.5 c0 -1 -0.44 -1.38 -1.14 -1.38 s-1.14 0.38 -1.14 1.38 l0 7.56 c0 1 0.44 1.36 1.14 1.36 s1.14 -0.36 1.14 -1.36 l0 -2 z M33.8 14 l0 6 l-2.2 0 l0 -14 l2.2 0 l0 6 l2.5 0 l0 -6 l2.24 0 l0 14 l-2.24 0 l0 -6 l-2.5 0 z M39.49999999999999 8 l0 -2 l6.8 0 l0 2 l-2.3 0 l0 12 l-2.2 0 l0 -12 l-2.3 0 z M49.459999999999994 8 l0 3.9 l3.02 0 l0 2 l-3.02 0 l0 4.1 l3.8 0 l0 2 l-6 0 l0 -14 l6 0 l0 2 l-3.8 0 z M58.919999999999995 14.780000000000001 l2.08 0 l0 1.86 c0 2.24 -1.12 3.52 -3.28 3.52 s-3.28 -1.28 -3.28 -3.52 l0 -7.28 c0 -2.24 1.12 -3.52 3.28 -3.52 s3.28 1.28 3.28 3.52 l0 1.36 l-2.08 0 l0 -1.5 c0 -1 -0.44 -1.38 -1.14 -1.38 s-1.14 0.38 -1.14 1.38 l0 7.56 c0 1 0.44 1.36 1.14 1.36 s1.14 -0.36 1.14 -1.36 l0 -2 z M64.53999999999999 14 l0 6 l-2.2 0 l0 -14 l2.2 0 l0 6 l2.5 0 l0 -6 l2.24 0 l0 14 l-2.24 0 l0 -6 l-2.5 0 z M78.27999999999999 14.780000000000001 l2.08 0 l0 1.86 c0 2.24 -1.12 3.52 -3.28 3.52 s-3.28 -1.28 -3.28 -3.52 l0 -7.28 c0 -2.24 1.12 -3.52 3.28 -3.52 s3.28 1.28 3.28 3.52 l0 1.36 l-2.08 0 l0 -1.5 c0 -1 -0.44 -1.38 -1.14 -1.38 s-1.14 0.38 -1.14 1.38 l0 7.56 c0 1 0.44 1.36 1.14 1.36 s1.14 -0.36 1.14 -1.36 l0 -2 z M83.71999999999998 9.22 l0 7.56 c0 1 0.44 1.38 1.14 1.38 s1.14 -0.38 1.14 -1.38 l0 -7.56 c0 -1 -0.44 -1.38 -1.14 -1.38 s-1.14 0.38 -1.14 1.38 z M81.52 16.64 l0 -7.28 c0 -2.24 1.18 -3.52 3.34 -3.52 s3.34 1.28 3.34 3.52 l0 7.28 c0 2.24 -1.18 3.52 -3.34 3.52 s-3.34 -1.28 -3.34 -3.52 z M94.32 20 l-2.7 -10.14 l-0.04 0 l0 10.14 l-1.98 0 l0 -14 l2.76 0 l2.22 8.38 l0.04 0 l0 -8.38 l1.96 0 l0 14 l-2.26 0 z M97.88 9.36 c0 -2.24 1.1 -3.52 3.24 -3.52 s3.24 1.28 3.24 3.52 l0 0.44 l-2.08 0 l0 -0.58 c0 -1 -0.4 -1.38 -1.1 -1.38 s-1.1 0.38 -1.1 1.38 c0 1.02 0.44 1.78 1.88 3.04 c1.84 1.62 2.42 2.78 2.42 4.38 c0 2.24 -1.12 3.52 -3.28 3.52 s-3.28 -1.28 -3.28 -3.52 l0 -0.86 l2.08 0 l0 1 c0 1 0.44 1.36 1.14 1.36 s1.14 -0.36 1.14 -1.36 c0 -1.02 -0.44 -1.78 -1.88 -3.04 c-1.84 -1.62 -2.42 -2.78 -2.42 -4.38 z M105.54 6 l2.2 0 l0 10.8 c0 1 0.44 1.36 1.14 1.36 s1.14 -0.36 1.14 -1.36 l0 -10.8 l2.08 0 l0 10.66 c0 2.24 -1.12 3.52 -3.28 3.52 s-3.28 -1.28 -3.28 -3.52 l0 -10.66 z M113.6 20 l0 -14 l2.2 0 l0 12 l3.62 0 l0 2 l-5.82 0 z M118.74 8 l0 -2 l6.8 0 l0 2 l-2.3 0 l0 12 l-2.2 0 l0 -12 l-2.3 0 z M130.62 6 l2.24 14 l-2.22 0 l-0.38 -2.54 l-2.7 0 l-0.38 2.54 l-2.02 0 l2.24 -14 l3.22 0 z M128.88 8.48 l-1.04 7.08 l2.12 0 l-1.04 -7.08 l-0.04 0 z M138.57999999999998 20 l-2.7 -10.14 l-0.04 0 l0 10.14 l-1.98 0 l0 -14 l2.76 0 l2.22 8.38 l0.04 0 l0 -8.38 l1.96 0 l0 14 l-2.26 0 z M141.77999999999997 8 l0 -2 l6.8 0 l0 2 l-2.3 0 l0 12 l-2.2 0 l0 -12 l-2.3 0 z"></path></g><g id="SvgjsG2558" featureKey="Nh6iBa-0" transform="matrix(0.747121145408298,0,0,0.747121145408298,107.40230294117131,49.63681346557927)" fill="#000000"><path d="M3 8 l0 3.9 l3.02 0 l0 2 l-3.02 0 l0 4.1 l3.8 0 l0 2 l-6 0 l0 -14 l6 0 l0 2 l-3.8 0 z M21.8879375 20 l-2.7 -10.14 l-0.04 0 l0 10.14 l-1.98 0 l0 -14 l2.76 0 l2.22 8.38 l0.04 0 l0 -8.38 l1.96 0 l0 14 l-2.26 0 z M39.635875 6 l2.24 14 l-2.22 0 l-0.38 -2.54 l-2.7 0 l-0.38 2.54 l-2.02 0 l2.24 -14 l3.22 0 z M37.895875 8.48 l-1.04 7.08 l2.12 0 l-1.04 -7.08 l-0.04 0 z M55.2438125 6 c2.28 0 3.26 1.06 3.26 3.22 l0 0.5 c0 1.44 -0.44 2.34 -1.42 2.8 l0 0.04 c1.18 0.46 1.64 1.5 1.64 2.98 l0 1.14 c0 2.16 -1.14 3.32 -3.34 3.32 l-3.46 0 l0 -14 l3.32 0 z M55.1038125 13.7 l-0.98 0 l0 4.3 l1.26 0 c0.74 0 1.14 -0.34 1.14 -1.38 l0 -1.22 c0 -1.3 -0.42 -1.7 -1.42 -1.7 z M55.1838125 8 l-1.06 0 l0 3.7 l0.86 0 c0.82 0 1.32 -0.36 1.32 -1.48 l0 -0.78 c0 -1 -0.34 -1.44 -1.12 -1.44 z M69.07175 20 l0 -14 l2.2 0 l0 12 l3.62 0 l0 2 l-5.82 0 z M87.0796875 8 l0 3.9 l3.02 0 l0 2 l-3.02 0 l0 4.1 l3.8 0 l0 2 l-6 0 l0 -14 l6 0 l0 2 l-3.8 0 z M113.3955625 20 l0 -14 l3.48 0 c2.2 0 3.28 1.22 3.28 3.46 l0 7.08 c0 2.24 -1.08 3.46 -3.28 3.46 l-3.48 0 z M116.8355625 8 l-1.24 0 l0 10 l1.24 0 c0.7 0 1.12 -0.36 1.12 -1.36 l0 -7.28 c0 -1 -0.42 -1.36 -1.12 -1.36 z M130.58350000000002 20 l0 -14 l2.2 0 l0 14 l-2.2 0 z M146.7114375 14.2 l0 -2 l3.08 0 l0 4.44 c0 2.24 -1.12 3.52 -3.28 3.52 s-3.28 -1.28 -3.28 -3.52 l0 -7.28 c0 -2.24 1.12 -3.52 3.28 -3.52 s3.28 1.28 3.28 3.52 l0 1.36 l-2.08 0 l0 -1.5 c0 -1 -0.44 -1.38 -1.14 -1.38 s-1.14 0.38 -1.14 1.38 l0 7.56 c0 1 0.44 1.36 1.14 1.36 s1.14 -0.36 1.14 -1.36 l0 -2.58 l-1 0 z M160.239375 20 l0 -14 l2.2 0 l0 14 l-2.2 0 z M172.42731249999997 8 l0 -2 l6.8 0 l0 2 l-2.3 0 l0 12 l-2.2 0 l0 -12 l-2.3 0 z M193.33525 6 l2.24 14 l-2.22 0 l-0.38 -2.54 l-2.7 0 l-0.38 2.54 l-2.02 0 l2.24 -14 l3.22 0 z M191.59525 8.48 l-1.04 7.08 l2.12 0 l-1.04 -7.08 l-0.04 0 z M205.6231875 20 l0 -14 l2.2 0 l0 12 l3.62 0 l0 2 l-5.82 0 z M236.8790625 6 c2.28 0 3.26 1.06 3.26 3.22 l0 0.5 c0 1.44 -0.44 2.34 -1.42 2.8 l0 0.04 c1.18 0.46 1.64 1.5 1.64 2.98 l0 1.14 c0 2.16 -1.14 3.32 -3.34 3.32 l-3.46 0 l0 -14 l3.32 0 z M236.7390625 13.7 l-0.98 0 l0 4.3 l1.26 0 c0.74 0 1.14 -0.34 1.14 -1.38 l0 -1.22 c0 -1.3 -0.42 -1.7 -1.42 -1.7 z M236.8190625 8 l-1.06 0 l0 3.7 l0.86 0 c0.82 0 1.32 -0.36 1.32 -1.48 l0 -0.78 c0 -1 -0.34 -1.44 -1.12 -1.44 z M250.607 6 l2.2 0 l0 10.8 c0 1 0.44 1.36 1.14 1.36 s1.14 -0.36 1.14 -1.36 l0 -10.8 l2.08 0 l0 10.66 c0 2.24 -1.12 3.52 -3.28 3.52 s-3.28 -1.28 -3.28 -3.52 l0 -10.66 z M267.4149375 9.36 c0 -2.24 1.1 -3.52 3.24 -3.52 s3.24 1.28 3.24 3.52 l0 0.44 l-2.08 0 l0 -0.58 c0 -1 -0.4 -1.38 -1.1 -1.38 s-1.1 0.38 -1.1 1.38 c0 1.02 0.44 1.78 1.88 3.04 c1.84 1.62 2.42 2.78 2.42 4.38 c0 2.24 -1.12 3.52 -3.28 3.52 s-3.28 -1.28 -3.28 -3.52 l0 -0.86 l2.08 0 l0 1 c0 1 0.44 1.36 1.14 1.36 s1.14 -0.36 1.14 -1.36 c0 -1.02 -0.44 -1.78 -1.88 -3.04 c-1.84 -1.62 -2.42 -2.78 -2.42 -4.38 z M284.20287500000006 20 l0 -14 l2.2 0 l0 14 l-2.2 0 z M301.73081250000007 20 l-2.7 -10.14 l-0.04 0 l0 10.14 l-1.98 0 l0 -14 l2.76 0 l2.22 8.38 l0.04 0 l0 -8.38 l1.96 0 l0 14 l-2.26 0 z M316.79875000000004 8 l0 3.9 l3.02 0 l0 2 l-3.02 0 l0 4.1 l3.8 0 l0 2 l-6 0 l0 -14 l6 0 l0 2 l-3.8 0 z M330.70668750000004 9.36 c0 -2.24 1.1 -3.52 3.24 -3.52 s3.24 1.28 3.24 3.52 l0 0.44 l-2.08 0 l0 -0.58 c0 -1 -0.4 -1.38 -1.1 -1.38 s-1.1 0.38 -1.1 1.38 c0 1.02 0.44 1.78 1.88 3.04 c1.84 1.62 2.42 2.78 2.42 4.38 c0 2.24 -1.12 3.52 -3.28 3.52 s-3.28 -1.28 -3.28 -3.52 l0 -0.86 l2.08 0 l0 1 c0 1 0.44 1.36 1.14 1.36 s1.14 -0.36 1.14 -1.36 c0 -1.02 -0.44 -1.78 -1.88 -3.04 c-1.84 -1.62 -2.42 -2.78 -2.42 -4.38 z M347.21462500000007 9.36 c0 -2.24 1.1 -3.52 3.24 -3.52 s3.24 1.28 3.24 3.52 l0 0.44 l-2.08 0 l0 -0.58 c0 -1 -0.4 -1.38 -1.1 -1.38 s-1.1 0.38 -1.1 1.38 c0 1.02 0.44 1.78 1.88 3.04 c1.84 1.62 2.42 2.78 2.42 4.38 c0 2.24 -1.12 3.52 -3.28 3.52 s-3.28 -1.28 -3.28 -3.52 l0 -0.86 l2.08 0 l0 1 c0 1 0.44 1.36 1.14 1.36 s1.14 -0.36 1.14 -1.36 c0 -1.02 -0.44 -1.78 -1.88 -3.04 c-1.84 -1.62 -2.42 -2.78 -2.42 -4.38 z M365.92256250000014 16.9 l-1.64 0 l-0.28 -5.06 l0 -5.84 l2.2 0 l0 5.84 z M364.0425625000001 17.88 l2.12 0 l0 2.12 l-2.12 0 l0 -2.12 z"></path></g>
			</g>
		</svg>
	